<svg id="Layer_1" data-name="Layer 1" xmlns="http://www.w3.org/2000/svg" xmlns:xlink="http://www.w3.org/1999/xlink" viewBox="0 0 360.3 327.29"><defs><style>.cls-1{fill:url(#linear-gradient);}.cls-2{fill:url(#linear-gradient-2);}.cls-3{fill:url(#linear-gradient-3);}.cls-4{fill:url(#radial-gradient);}.cls-5{fill:url(#linear-gradient-4);}</style><linearGradient id="linear-gradient" x1="275.48" y1="95.49" x2="345.47" y2="286.8" gradientUnits="userSpaceOnUse"><stop offset="0.14" stop-color="#1e7eba"/><stop offset="0.33" stop-color="#1d223f"/><stop offset="0.52" stop-color="#1e7eba"/><stop offset="0.83" stop-color="#1d223f"/><stop offset="0.93" stop-color="#1e7eba"/></linearGradient><linearGradient id="linear-gradient-2" x1="346.6" y1="326.23" x2="143.06" y2="317.92" xlink:href="#linear-gradient"/><linearGradient id="linear-gradient-3" x1="80.53" y1="254.33" x2="233.02" y2="119.27" xlink:href="#linear-gradient"/><radialGradient id="radial-gradient" cx="193.47" cy="160.45" r="60.31" gradientUnits="userSpaceOnUse"><stop offset="0.14" stop-color="#1e7eba"/><stop offset="0.33" stop-color="#1d223f"/><stop offset="0.52" stop-color="#1e7eba"/></radialGradient><linearGradient id="linear-gradient-4" x1="94.62" y1="235" x2="379.38" y2="235" xlink:href="#linear-gradient"/></defs><title>favicon</title><path class="cls-1" d="M335.71,74.55A218.77,218.77,0,0,1,349,92.5q6.24,9.25,11.8,18.94t10.53,19.68a207.32,207.32,0,0,1,8.95,20.5c5.18,14,8.77,28.61,12.38,43,1.77,7.23,3.45,14.48,4.7,21.87.62,3.7,1.16,7.42,1.52,11.2a89.17,89.17,0,0,1,.33,11.47,54,54,0,0,1-1.71,11.7,36.9,36.9,0,0,1-5,11.25c-.57.89-1.24,1.71-1.88,2.56s-1.38,1.62-2.16,2.35a35.35,35.35,0,0,1-4.9,4.08,41.63,41.63,0,0,1-11.31,5.39,71.09,71.09,0,0,1-23.72,2.68A121,121,0,0,1,325.68,276a231.47,231.47,0,0,1-42.53-15c-3.41-1.51-6.76-3.17-10.1-4.82l-5-2.52L263.14,251c-6.55-3.55-13-7.3-19.23-11.36l.48-1c7.07,2.32,14.05,4.78,21,7.2l10.44,3.59,10.45,3.47a408,408,0,0,0,41.92,11.61,168.19,168.19,0,0,0,21,3.21,64.23,64.23,0,0,0,20.21-1.2,33.56,33.56,0,0,0,8.88-3.56,27.81,27.81,0,0,0,7.13-6.08,26.27,26.27,0,0,0,2.77-3.94,33.59,33.59,0,0,0,2.25-4.44,47.55,47.55,0,0,0,2.84-9.95,76.61,76.61,0,0,0,.48-21.52,120.79,120.79,0,0,0-4.46-21.45c-4.21-14.08-11-27.22-17.4-40.37q-4.8-9.89-9.34-19.88l-9.3-19.94c-6.22-13.31-12.53-26.62-18.46-40.27Z" transform="translate(-39.02 -74.55)"/><path class="cls-2" d="M343,389.9a218.29,218.29,0,0,1-21.68,5.47c-7.29,1.49-14.63,2.7-22,3.68s-14.78,1.73-22.21,2.22a208.44,208.44,0,0,1-22.36.45c-14.94-.56-29.8-2.81-44.51-5-7.36-1.12-14.71-2.34-22-4-3.65-.84-7.3-1.76-10.93-2.87a89.74,89.74,0,0,1-10.73-4.08,54.1,54.1,0,0,1-10.16-6,36.76,36.76,0,0,1-8.47-9c-.61-.86-1.12-1.79-1.65-2.71a30.37,30.37,0,0,1-1.35-2.89A35.25,35.25,0,0,1,143,359.1a41.93,41.93,0,0,1-.66-12.51,71.31,71.31,0,0,1,6.58-22.95,121.35,121.35,0,0,1,11.68-19.89,231.89,231.89,0,0,1,30.11-33.58c2.71-2.58,5.51-5,8.31-7.5l4.24-3.65,4.32-3.54c5.77-4.7,11.7-9.21,17.83-13.43l.74.81c-4.85,5.65-9.79,11.16-14.68,16.68l-7.3,8.29-7.2,8.33a410.24,410.24,0,0,0-26.73,34.31,173.73,173.73,0,0,0-11,18.15,64.77,64.77,0,0,0-6.6,19.15,33.69,33.69,0,0,0-.09,9.56,28.14,28.14,0,0,0,5.48,13,33.75,33.75,0,0,0,3.25,3.77,46.79,46.79,0,0,0,8.11,6.42,76.55,76.55,0,0,0,19.7,8.65,120.63,120.63,0,0,0,21.53,4.07c14.62,1.48,29.37.19,44-.68q11-.66,21.94-1l22-1c14.68-.67,29.39-1.42,44.27-1.7Z" transform="translate(-39.02 -74.55)"/><path class="cls-3" d="M39,205.92a218.75,218.75,0,0,1,11.83-19q6.34-9.18,13.32-17.9t14.48-17a206.87,206.87,0,0,1,15.8-15.82c11.17-9.95,23.43-18.62,35.54-27.25,6.08-4.3,12.22-8.51,18.65-12.37,3.21-1.93,6.48-3.8,9.86-5.51a91,91,0,0,1,10.56-4.5,54.52,54.52,0,0,1,11.51-2.68,36.66,36.66,0,0,1,12.32.58c1,.2,2.05.52,3.07.81s2,.7,3,1.15a35.37,35.37,0,0,1,5.59,3.08,41.61,41.61,0,0,1,9.14,8.55,71.18,71.18,0,0,1,11.17,21.1,121.41,121.41,0,0,1,5.36,22.44,231,231,0,0,1,1.56,45.08c-.16,3.73-.48,7.45-.79,11.17l-.53,5.56-.65,5.55c-.91,7.39-2.06,14.74-3.55,22l-1.1-.08c-.42-7.43-.68-14.82-1-22.19l-.48-11-.59-11a409.49,409.49,0,0,0-4.51-43.27,172.05,172.05,0,0,0-4.67-20.68,64.79,64.79,0,0,0-8.51-18.37,33.47,33.47,0,0,0-6.56-7A27.42,27.42,0,0,0,190.59,93a25.9,25.9,0,0,0-4.69-1.14,33.48,33.48,0,0,0-5-.47,47.23,47.23,0,0,0-10.3,1,76.42,76.42,0,0,0-20.2,7.42,120.42,120.42,0,0,0-18.34,12c-11.57,9.06-21.3,20.22-31.22,31-5,5.39-10,10.69-15.09,16L70.64,174.67c-10.12,10.66-20.2,21.39-30.74,31.91Z" transform="translate(-39.02 -74.55)"/><circle class="cls-4" cx="193.47" cy="160.45" r="29.56"/><path class="cls-5" d="M308.19,358.31H165.81L94.62,235l71.19-123.31H308.19L379.38,235Zm-136-11H301.84L366.68,235,301.84,122.69H172.16L107.32,235Z" transform="translate(-39.02 -74.55)"/></svg>